<svg xmlns:svg="http://www.w3.org/2000/svg" xmlns="http://www.w3.org/2000/svg" xmlns:xlink="http://www.w3.org/1999/xlink" xmlns:inkscape="http://www.inkscape.org/namespaces/inkscape" width="2467.94970703125" height="1024.0" id="svgoverlay" version="1.1">
  <defs id="defs4">
    <clipPath id="edgeclip">
      <path id="clippath" d="M1284.877319 505.367310 L1283.862793 502.573425, 1283.165894 498.921387, 1281.907227 494.467590, 1279.196167 492.456177, 1277.835815 490.919800, 1278.613770 489.685852, 1277.663574 486.755737, 1277.145752 484.555969, 1277.064453 482.815918, 1276.134766 481.314880, 1275.651855 480.157654, 1276.978516 480.056519, 1277.087769 476.377136, 1275.324951 473.029175, 1273.335205 469.261230, 1271.171997 465.716614, 1269.361572 463.390137, 1268.769287 461.698181, 1267.556274 458.983459, 1265.077881 455.587463, 1262.794312 453.397949, 1261.214844 452.423462, 1261.711182 450.124695, 1260.168579 448.075745, 1260.960327 446.052307, 1262.536011 441.469604, 1266.311279 436.682007, 1269.665405 433.665833, 1273.007202 430.447449, 1273.866211 428.728943, 1275.804321 427.712708, 1278.304321 424.958557, 1278.655029 418.024109, 1277.745483 414.142273, 1278.619507 410.176270, 1277.319214 404.430298, 1277.482178 398.857971, 1277.221436 391.646912, 1276.724487 387.426819, 1277.095947 385.141296, 1276.956299 381.008179, 1277.931152 376.447876, 1278.859619 372.026917, 1280.098999 368.173584, 1281.026489 362.633423, 1281.332153 358.216736, 1282.112183 353.655273, 1282.219604 350.223877, 1283.447754 346.494934, 1286.824829 343.610596, 1289.410522 340.318970, 1292.469849 336.843689, 1295.226074 333.392273, 1296.537354 330.250061, 1299.023804 326.822266, 1299.440308 323.765015, 1300.661499 321.271667, 1302.014282 317.875610, 1303.621216 312.935791, 1304.735229 308.669678, 1305.793213 303.697388, 1306.276733 300.486938, 1306.881714 298.181396, 1307.519775 294.658875, 1307.930298 291.737000, 1309.236694 289.937744, 1310.994751 286.877747, 1313.135498 281.197205, 1315.476074 276.641968, 1316.832397 271.767822, 1319.561646 267.856079, 1319.280029 262.895691, 1318.550537 259.711853, 1318.861572 256.735352, 1320.304932 254.773804, 1320.390625 252.025696, 1322.341187 249.717346, 1322.423706 246.420349, 1322.544312 243.194824, 1322.390503 240.678650, 1322.475342 238.526855, 1322.459351 236.464111, 1322.009033 234.097046, 1321.236694 231.601318, 1320.199341 229.094177, 1318.404419 227.349182, 1319.020386 224.944336, 1320.650024 221.421265, 1317.547974 219.029114, 1314.815063 217.842834, 1314.935303 215.409546, 1315.032104 212.824707, 1315.155518 210.145020, 1315.408447 207.107849, 1314.452637 204.146118, 1315.603149 201.797974, 1318.804443 200.503784, 1321.614258 200.530579, 1324.147949 201.149841, 1324.911011 197.541260, 1326.028687 194.444275, 1328.808350 194.162476, 1331.108643 193.368164, 1333.754028 193.189148, 1334.548706 190.299866, 1334.315674 188.808411, 1335.735107 188.355469, 1336.690186 186.348999, 1340.085327 187.272766, 1341.795410 186.274902, 1344.585205 187.235291, 1346.676514 186.593811, 1349.284058 186.871582, 1352.645142 188.118469, 1353.151855 184.306702, 1352.970825 181.589417, 1351.766235 179.597778, 1353.363770 178.347351, 1351.898193 175.923950, 1351.962891 173.049011, 1351.819824 170.031799, 1352.367920 167.196533, 1353.001709 163.644897, 1353.862915 159.947937, 1354.428345 156.136047, 1354.126099 152.721375, 1356.530762 149.641785, 1356.748535 146.977234, 1356.912354 144.274658, 1356.981201 141.928223, 1357.012695 140.763000, 1359.716919 141.294250, 1359.840576 138.411865, 1361.947510 138.018005, 1363.719360 135.058777, 1365.542236 132.123657, 1367.243530 129.179199, 1369.289673 125.680420, 1372.950684 124.607361, 1375.590698 124.277527, 1377.481567 122.805908, 1380.409668 122.246338, 1383.181396 121.810791, 1384.537231 120.885681, 1384.862183 119.467529, 1386.515137 121.119507, 1388.079102 119.928162, 1390.322388 119.325500, 1392.152710 122.445984, 1394.740356 124.341064, 1394.759888 126.297180, 1397.007202 127.990540, 1399.568848 129.570374, 1402.035156 131.396973, 1404.805908 133.470398, 1406.525146 132.267273, 1408.203369 133.702576, 1409.911255 132.445374, 1411.056030 132.362549, 1411.485718 133.671204, 1413.913330 135.654236, 1416.247314 137.655457, 1419.086792 137.180237, 1419.844482 135.711304, 1421.821411 136.215820, 1425.451538 134.855408, 1427.946655 132.827087, 1429.162964 131.995667, 1430.261353 132.302795, 1430.441528 131.192078, 1432.170288 130.285767, 1436.361694 128.222778, 1439.355225 124.502441, 1443.213745 121.689758, 1443.538086 119.575867, 1444.018677 117.412903, 1447.084839 117.242920, 1450.398804 116.781860, 1453.705200 115.234863, 1456.064697 114.593140, 1457.130737 113.624512, 1458.293701 112.339783, 1458.899048 108.395447, 1458.497925 105.459900, 1458.373535 103.777832, 1459.280518 101.877441, 1458.925415 99.813232, 1459.529785 96.833801, 1459.088745 95.338684, 1459.776001 93.191223, 1459.389893 89.029907, 1461.519287 89.750977, 1463.433716 91.750000, 1466.462402 91.374878, 1468.976318 90.654541, 1471.456909 91.770996, 1474.507080 91.558533, 1477.026978 92.932983, 1480.051392 93.156067, 1482.316040 94.515686, 1484.367798 95.950684, 1486.576660 96.756165, 1489.712524 97.099976, 1493.010986 98.242737, 1496.850708 100.382324, 1499.463501 100.997314, 1500.958252 102.978149, 1502.934326 105.330200, 1504.889526 107.674866, 1506.729126 109.900940, 1508.619507 111.950073, 1511.005859 113.509521, 1513.601562 114.666321, 1516.160400 115.827087, 1519.810059 116.874390, 1522.209717 115.554382, 1524.583618 117.315979, 1527.898926 116.116150, 1530.813599 117.147156, 1533.868652 118.766235, 1537.333252 120.834534, 1539.783081 122.071167, 1541.657104 123.754822, 1544.132568 125.237183, 1546.402344 125.184753, 1549.070190 126.527283, 1551.123657 129.168396, 1552.600342 131.306030, 1554.833252 131.986694, 1556.901855 134.043823, 1559.555298 135.624084, 1561.784302 136.082703, 1563.453491 138.293335, 1565.985107 137.381104, 1568.519531 138.624512, 1570.223999 141.082886, 1570.184937 143.291443, 1571.641724 145.743774, 1573.359009 145.298767, 1573.631470 146.686157, 1574.690552 147.694641, 1573.387573 149.042908, 1575.180298 150.548340, 1576.222778 151.983704, 1576.565918 154.116211, 1577.949951 156.946960, 1579.462158 160.444397, 1581.772827 160.407043, 1581.593506 162.393188, 1583.336426 165.382141, 1585.086914 167.699768, 1586.220459 169.974121, 1588.669434 169.794495, 1589.119629 171.975220, 1592.287842 172.611694, 1594.182739 174.965332, 1596.782349 177.168945, 1599.334106 179.356140, 1602.080078 181.596680, 1603.013916 185.940735, 1603.744385 189.051697, 1604.671387 191.815002, 1607.366577 194.371765, 1609.346313 197.842041, 1614.254517 200.026855, 1619.162598 201.898254, 1625.969849 202.961548, 1629.072510 206.110291, 1637.251709 205.679688, 1645.726562 204.373718, 1654.982300 201.629944, 1658.123047 199.719177, 1663.395264 197.541077, 1671.191528 192.583191, 1677.141846 188.338501, 1683.807739 182.497803, 1689.284180 179.390869, 1693.086060 174.099060, 1696.654175 171.046326, 1702.141846 162.224670, 1704.696655 151.926819, 1707.438110 145.816345, 1710.390259 140.072083, 1713.943970 134.761230, 1716.074219 130.835388, 1720.243530 126.067200, 1720.776855 124.288757, 1722.983154 123.436035, 1725.854736 122.860352, 1729.555176 121.079956, 1734.059204 118.662231, 1737.907471 115.535278, 1740.188110 113.462769, 1741.659180 112.103516, 1743.815308 108.989380, 1747.317627 105.734558, 1749.146729 103.156677, 1751.162354 101.113647, 1754.571899 99.139587, 1758.850220 95.457520, 1762.232178 91.869690, 1765.432861 88.842224, 1768.634766 87.463806, 1771.604858 83.811401, 1774.518433 80.232544, 1777.359985 76.478516, 1779.949219 72.164368, 1782.605835 68.823669, 1784.489868 65.815186, 1788.083252 63.740906, 1790.928711 61.447632, 1792.103516 59.497253, 1795.071777 57.639404, 1796.341309 54.398499, 1797.424438 51.839539, 1800.298584 50.185364, 1799.653076 47.150330, 1800.883789 45.035339, 1802.905396 43.342407, 1804.509399 40.486572, 1805.839478 37.580688, 1804.526733 35.304077, 1807.748047 34.294556, 1807.526611 31.319214, 1809.871216 30.851562, 1812.124756 27.757324, 1814.168579 25.252258, 1816.335571 22.925537, 1818.613403 20.638184, 1820.677734 18.358398, 1822.639526 16.115845, 1824.481445 13.970215, 1825.861816 11.720642, 1827.158936 9.812378, 1828.554321 8.250183, 1829.662964 6.706665, 1832.580444 7.864746, 1833.669434 6.224487, 1836.480103 7.182373, 1838.317871 5.463196, 1841.518311 6.449829, 1843.270874 3.955505, 1844.888550 1.779541, 1847.083374 2.459961, 1848.921387 1.425720, 1849.382080 0.000000, 1850.451782 0.816467, 1852.532349 0.897400, 1853.723511 3.722961, 1856.106567 4.504211, 1858.492676 5.619507, 1861.134766 6.524902, 1863.427124 7.168884, 1864.053223 9.980713, 1865.550537 13.469360, 1869.678101 13.555237, 1871.893555 14.521729, 1874.020630 15.371765, 1876.650024 15.435791, 1878.951416 16.287292, 1883.886963 16.916504, 1889.772095 17.345276, 1893.743652 17.559570, 1896.679688 18.725159, 1899.447754 18.541321, 1902.977661 19.312012, 1908.052612 20.999939, 1912.516479 22.848633, 1916.958618 22.434387, 1921.306885 23.664001, 1924.722900 22.715881, 1928.631958 23.683960, 1932.255737 22.206970, 1936.307373 22.753052, 1940.520386 23.776367, 1943.814209 23.105225, 1947.390259 24.742554, 1951.303101 25.633850, 1954.289185 25.281311, 1957.391846 26.525635, 1960.215210 26.382507, 1962.467407 28.851257, 1967.503174 28.797852, 1972.096313 28.622253, 1976.126587 28.212769, 1979.173828 27.566772, 1981.478760 27.017212, 1983.564209 27.779663, 1985.611694 27.110596, 1988.331177 26.664307, 1991.096558 25.458862, 1993.293579 24.027222, 1994.466187 22.980225, 1995.064819 24.084717, 1997.461670 24.087036, 2000.455688 23.871033, 2003.774902 23.487610, 2007.295532 22.946960, 2009.907959 19.280029, 2012.648926 16.102600, 2015.056763 13.415222, 2015.901367 15.978943, 2016.720215 18.738403, 2017.420898 21.757751, 2018.081665 25.109741, 2018.889648 28.658386, 2019.464355 31.706055, 2021.170898 31.981201, 2022.365112 32.779480, 2023.721924 33.869446, 2024.057129 35.236023, 2024.598755 37.740173, 2027.805908 40.638977, 2028.203491 43.376648, 2028.566528 45.830994, 2030.461182 48.082275, 2033.203003 49.581116, 2034.561279 52.109619, 2036.816528 52.320984, 2038.540894 54.042175, 2039.590088 56.963684, 2041.252930 60.134216, 2043.275024 63.776917, 2048.323242 65.086365, 2051.009521 65.699158, 2051.395752 68.137512, 2054.499268 69.965393, 2056.070801 70.060364, 2056.302979 72.184998, 2060.290283 74.412292, 2064.076172 76.068604, 2068.256348 78.473145, 2072.085205 80.356567, 2075.550781 81.481995, 2078.875732 83.655762, 2082.196777 84.982971, 2086.068359 86.445618, 2089.043701 88.958313, 2089.609863 91.709778, 2092.217529 94.945251, 2095.373779 97.008667, 2097.845947 98.787292, 2099.411865 102.174744, 2102.107422 104.958984, 2105.312500 107.774353, 2110.542725 110.290161, 2114.453857 112.175354, 2117.339600 115.609680, 2121.002930 119.203979, 2124.408447 123.784790, 2127.464111 128.486633, 2130.114014 133.264099, 2132.986572 138.159912, 2136.391602 143.671509, 2139.636719 149.318054, 2144.729980 154.304565, 2151.457031 160.066040, 2157.244873 164.953064, 2161.098389 168.928345, 2168.158447 175.602356, 2179.347656 181.297791, 2188.066406 184.888916, 2195.196777 188.026672, 2199.772217 188.837219, 2204.078857 189.122559, 2209.208984 189.158630, 2215.063965 189.944397, 2219.689453 190.925476, 2224.101807 190.656555, 2225.496582 189.399963, 2227.261719 189.400757, 2232.543457 189.814148, 2238.360352 188.336487, 2243.298340 187.491272, 2248.801514 186.738953, 2254.063477 185.903931, 2258.899902 185.542358, 2262.150879 184.107422, 2265.458252 184.029419, 2269.887207 183.220581, 2274.862793 183.252258, 2277.650146 181.199951, 2281.378906 180.061096, 2283.089844 177.755859, 2285.688721 178.513550, 2288.376465 177.688232, 2290.944580 178.735596, 2294.955566 179.370178, 2298.430176 178.129883, 2301.108643 179.661377, 2305.126709 180.557434, 2309.031738 181.679993, 2312.571289 182.434204, 2316.248291 183.674438, 2320.501465 185.267395, 2324.034180 184.971130, 2326.217285 187.382385, 2329.087158 187.152710, 2331.302246 189.780334, 2335.516113 188.883911, 2339.280029 190.602905, 2342.380371 192.083801, 2345.437988 193.306641, 2347.141357 190.711121, 2349.383301 191.742615, 2350.814941 189.936340, 2352.887207 189.463562, 2355.575684 188.989380, 2357.669434 191.012573, 2360.652344 191.156799, 2363.471436 191.855286, 2366.360840 193.729065, 2367.675537 191.322693, 2369.463867 192.633667, 2371.697021 192.147461, 2373.412842 193.014160, 2375.441162 195.108521, 2378.238770 197.147949, 2381.043457 199.065308, 2383.838867 200.701111, 2386.242676 202.187012, 2388.135742 203.617188, 2388.106934 206.220032, 2386.808838 208.959900, 2388.376953 209.822632, 2387.833008 210.612061, 2386.759277 212.250183, 2384.546387 215.987366, 2386.889648 217.279846, 2385.958008 218.930054, 2386.388184 222.305603, 2388.268066 224.733154, 2385.968750 226.655273, 2387.246094 229.275574, 2387.052002 231.254089, 2387.627441 232.383423, 2388.602783 233.961487, 2389.919922 236.161560, 2389.295654 238.300110, 2390.735352 240.801819, 2391.440918 243.550476, 2390.507568 246.030762, 2392.498047 248.546753, 2391.806641 251.231018, 2392.583008 254.398254, 2393.989258 255.536560, 2393.601807 257.791138, 2395.063477 259.451416, 2394.161865 261.415344, 2394.093262 265.657349, 2395.802246 266.055481, 2395.714844 267.449768, 2395.513428 270.131409, 2397.813721 271.052124, 2398.986816 272.320129, 2398.318115 273.523499, 2398.950928 275.923828, 2400.208740 277.144104, 2399.670654 278.643188, 2400.639893 282.235779, 2402.162109 282.868958, 2403.407959 284.711243, 2406.097168 287.473755, 2408.738525 290.491516, 2410.055420 289.114563, 2410.246826 290.362549, 2411.107666 292.591858, 2412.231934 295.815002, 2414.007568 298.061340, 2415.592773 300.863647, 2417.169922 303.649719, 2418.991943 306.503540, 2420.604736 309.213013, 2422.315918 309.582336, 2422.580322 311.726746, 2424.244141 312.872375, 2425.402100 315.564148, 2429.259766 318.003357, 2432.798828 319.934753, 2436.332031 321.933472, 2439.648926 323.924255, 2442.039307 326.552734, 2444.487549 329.196777, 2447.163086 331.017883, 2448.458984 331.151611, 2448.789795 332.940369, 2451.722900 334.014282, 2452.576416 336.868042, 2453.463135 339.610535, 2454.377930 342.451538, 2455.685547 345.187195, 2457.860840 347.697510, 2459.906006 347.406616, 2460.683350 348.985229, 2464.343018 350.190002, 2467.949707 351.419800, 2466.386475 352.948303, 2464.360352 353.850403, 2465.635986 355.177246, 2462.820068 355.797852, 2462.677002 358.166138, 2459.642090 360.053406, 2454.742676 359.996948, 2453.364990 363.162415, 2454.890625 365.352844, 2453.218506 367.068909, 2452.471680 368.551147, 2450.915283 369.535095, 2451.008545 371.554565, 2451.023682 374.295654, 2450.439209 377.380798, 2452.016357 379.687622, 2448.874756 380.790405, 2449.089844 384.154846, 2448.287842 386.947754, 2447.251221 390.898987, 2447.702881 395.021179, 2447.905273 398.758484, 2448.120117 401.282532, 2445.300293 401.933350, 2446.264893 405.189575, 2444.620605 406.450806, 2444.798584 410.517212, 2442.706787 413.183044, 2442.650146 416.376221, 2441.304443 418.892761, 2440.071777 423.323486, 2440.006104 426.490784, 2438.090576 428.275513, 2436.462891 432.421082, 2434.765137 436.139771, 2432.262939 440.180420, 2430.786133 442.824829, 2428.290771 443.585815, 2427.137207 445.937805, 2424.269287 446.972839, 2423.232910 449.668213, 2420.830322 452.799988, 2420.184082 455.755981, 2419.145020 458.231567, 2417.730469 460.938416, 2416.387695 463.159729, 2414.597412 465.500488, 2411.915771 468.752930, 2409.325928 472.187073, 2407.336914 475.425903, 2404.742432 477.497437, 2401.929199 480.242615, 2399.185059 483.532349, 2396.576660 486.756226, 2394.515869 489.158691, 2392.555420 491.268005, 2389.197021 495.443481, 2387.017090 501.630005, 2383.381348 505.351807, 2379.431641 509.051270, 2378.305908 511.964783, 2377.367432 513.708374, 2376.235107 513.825806, 2372.912842 518.796936, 2369.248291 524.279053, 2364.719971 529.797119, 2359.622559 537.538330, 2354.530273 542.748901, 2347.229492 551.944702, 2343.776367 558.825684, 2343.874023 562.690308, 2344.463135 564.752563, 2345.034424 566.515625, 2344.178467 567.857422, 2344.777588 571.874207, 2345.312988 576.859924, 2346.383789 578.424438, 2346.921631 580.872925, 2346.562988 581.954590, 2346.997314 588.307068, 2347.632324 593.586548, 2347.378418 597.796265, 2348.969238 602.184570, 2350.223389 606.385010, 2349.785156 610.766663, 2349.117432 615.038147, 2349.852051 619.933228, 2350.881836 621.825134, 2350.615967 624.376343, 2350.388184 629.526794, 2350.906982 634.572388, 2350.743408 639.299316, 2351.833984 643.360901, 2350.909668 648.214294, 2350.759033 650.934448, 2349.897705 652.528992, 2347.981445 658.203247, 2347.379395 662.296509, 2346.659912 665.399353, 2346.396240 668.330627, 2345.439941 672.758911, 2343.595947 678.123535, 2343.139893 683.682373, 2341.418213 688.391724, 2341.032471 693.020752, 2340.061035 698.784302, 2338.916748 704.968628, 2336.516846 709.224365, 2334.015625 716.062256, 2334.976074 719.262634, 2333.770508 724.363525, 2334.669434 726.106567, 2333.533203 728.933228, 2334.053467 731.572937, 2333.006104 733.730591, 2329.068359 738.699219, 2324.240967 742.340820, 2322.010254 745.674927, 2319.122314 748.042969, 2317.077393 751.165894, 2314.558105 754.751099, 2312.110352 758.251465, 2310.545410 760.957397, 2308.517090 762.808838, 2305.436768 764.663940, 2302.043213 768.000793, 2299.233643 770.979004, 2297.174805 773.810242, 2295.226318 776.778442, 2293.286133 779.522705, 2291.385742 781.798279, 2289.391846 783.369629, 2287.158447 785.082886, 2285.510986 786.442749, 2283.650146 787.516724, 2281.361816 788.786316, 2278.117188 789.825500, 2273.632812 792.072632, 2272.680176 795.456177, 2271.823730 796.938477, 2270.257568 797.040222, 2268.797363 798.469604, 2267.042480 797.340820, 2264.124756 797.737000, 2261.363770 797.598145, 2257.971191 797.074585, 2254.145752 796.487671, 2250.310059 795.753296, 2246.481201 794.951660, 2242.947510 794.264526, 2238.574463 794.630371, 2237.182373 796.341431, 2234.340820 796.094055, 2229.666748 795.767334, 2226.402588 795.158936, 2223.802246 794.084473, 2222.160156 795.886841, 2221.062988 794.944214, 2218.795654 792.613525, 2216.891846 794.752014, 2215.301270 794.462769, 2214.208496 793.101501, 2211.341309 792.601868, 2210.066650 792.176147, 2209.083984 791.893555, 2207.905273 791.778687, 2207.820557 790.806885, 2207.100586 789.658020, 2205.819336 788.997559, 2204.539795 787.285889, 2201.451416 786.726807, 2199.625000 787.963318, 2198.571289 787.132446, 2196.764404 786.255493, 2195.354492 784.497070, 2192.698730 785.090027, 2190.103760 784.729370, 2187.090576 784.547241, 2184.518799 784.604370, 2182.257812 784.204834, 2179.803223 783.317993, 2178.434570 784.945801, 2175.342285 786.258179, 2172.126709 787.058228, 2171.777832 778.867920, 2176.129150 777.018433, 2178.974365 775.341919, 2182.216064 774.691162, 2184.756592 774.095093, 2186.660889 775.547607, 2191.936768 773.053833, 2196.791992 776.654480, 2200.255615 781.518494, 2201.142090 787.870300, 2199.247803 792.329346, 2199.050049 794.471680, 2200.549561 796.270264, 2201.897705 798.369324, 2202.793213 800.175110, 2202.910400 801.921021, 2201.431641 803.716797, 2199.989014 805.156494, 2197.885254 806.803467, 2197.428955 810.150757, 2197.880615 813.360474, 2199.268555 816.315552, 2200.454346 818.878906, 2198.398193 821.432007, 2198.752930 823.600952, 2196.892822 825.117737, 2199.310547 826.991577, 2199.450195 829.235474, 2200.312988 830.411377, 2200.568848 831.672791, 2201.165039 833.783936, 2201.957031 836.093384, 2203.436035 838.397217, 2205.290283 840.833252, 2201.861328 841.007629, 2198.447510 841.194946, 2195.255615 840.351929, 2192.801514 840.020508, 2191.017578 840.135376, 2189.226318 838.979492, 2186.464844 837.810669, 2183.598877 838.653625, 2180.819092 838.430420, 2177.495605 837.872559, 2175.750732 835.775330, 2173.398193 834.163330, 2171.079590 836.108459, 2169.913086 833.624695, 2167.920898 830.357971, 2165.029053 828.736023, 2163.483398 826.649658, 2161.465576 825.870850, 2159.211914 826.398315, 2156.874023 825.795715, 2155.220215 823.922058, 2152.732422 823.919861, 2151.071533 823.494141, 2150.153076 824.131348, 2149.809570 822.752441, 2149.060303 819.726074, 2146.738281 816.302856, 2143.785889 815.598022, 2141.481201 813.580505, 2138.056641 813.259827, 2135.514404 809.454224, 2138.825684 810.371521, 2142.073242 810.612427, 2144.810059 810.424255, 2147.555664 810.153992, 2150.335693 810.204041, 2151.520996 807.010498, 2152.494141 803.679443, 2153.497559 800.677185, 2155.234863 798.427612, 2152.194580 794.333252, 2151.962891 791.673462, 2149.024170 786.854858, 2146.998047 783.597595, 2145.333496 781.130554, 2143.376221 778.805725, 2140.566162 775.787842, 2137.407227 774.241333, 2134.315430 771.003540, 2130.058350 766.463074, 2125.379639 763.905884, 2121.544922 762.419922, 2118.755859 758.994751, 2116.274902 756.944092, 2114.238281 754.358154, 2110.999268 752.044434, 2108.643799 751.303467, 2107.039795 749.198364, 2105.442139 749.750916, 2103.655029 748.684387, 2101.053467 746.922241, 2098.148682 746.788025, 2094.632568 744.996094, 2088.378418 742.507080, 2082.748291 739.862244, 2073.357178 737.661865, 2064.127197 735.531250, 2054.539551 733.506836, 2044.706421 732.155029, 2043.333618 732.315674, 2037.380371 730.804321, 2029.016846 729.771912, 2019.050903 729.753967, 2015.006592 730.015137, 2012.470093 728.625122, 2005.929199 728.891479, 2001.144897 729.619995, 1995.435913 730.032349, 1990.969116 731.139893, 1984.945435 731.695679, 1979.250488 731.778320, 1973.246338 731.787964, 1967.214233 732.194702, 1960.637329 732.139038, 1954.993408 732.362061, 1949.408325 732.331909, 1942.668213 734.083618, 1936.054932 735.813171, 1934.683594 737.558350, 1932.197388 737.449341, 1926.888916 738.252197, 1922.766968 739.625916, 1921.470215 740.888062, 1919.668945 740.415955, 1917.674438 741.617126, 1914.880981 742.442383, 1912.071533 744.192383, 1909.942383 745.500977, 1909.311279 743.158569, 1904.731812 742.636963, 1901.117432 741.228455, 1896.092285 740.906372, 1893.009644 739.360962, 1887.728271 738.720825, 1884.317383 739.738159, 1881.956055 740.337769, 1879.393311 739.732605, 1873.678101 740.983398, 1869.886230 740.765869, 1865.307129 742.220703, 1862.640625 741.868347, 1857.608276 743.135742, 1854.746460 742.879517, 1849.474731 743.279785, 1840.436890 746.031616, 1831.816284 751.645752, 1824.858154 757.101807, 1818.119751 764.778198, 1811.594360 772.801880, 1808.238037 778.097107, 1803.750000 785.859558, 1803.639648 788.015503, 1801.971558 791.109253, 1798.958862 797.366882, 1797.398682 803.514587, 1797.126953 805.445618, 1795.291504 807.501038, 1792.304932 811.819824, 1788.210815 817.147400, 1784.750732 820.836487, 1779.199951 826.966797, 1774.672119 832.772034, 1772.272095 836.182373, 1768.773804 840.395081, 1766.622314 845.153381, 1764.467041 849.102173, 1761.512939 853.474365, 1759.629883 856.563721, 1758.282349 856.816650, 1756.977539 860.020569, 1755.329224 861.432922, 1751.713623 866.281921, 1746.737061 874.439575, 1742.932373 879.257141, 1738.972534 884.571655, 1734.570312 888.619751, 1730.784180 891.589478, 1725.066406 896.018616, 1718.047974 899.853577, 1711.626221 902.797485, 1705.338867 905.532959, 1700.095581 909.014465, 1694.642822 910.693604, 1692.036621 912.962830, 1689.817627 914.473633, 1686.648193 914.958130, 1682.968628 916.019592, 1684.157715 918.267456, 1681.729614 917.677429, 1680.240234 918.955872, 1678.754395 920.573547, 1676.701294 922.114502, 1673.186157 923.193420, 1670.504639 923.674988, 1669.419800 924.559937, 1666.835693 924.453613, 1667.064331 926.379089, 1663.203613 927.242981, 1662.809937 929.622681, 1661.669189 932.642944, 1658.957275 934.358093, 1659.668579 936.119019, 1658.841431 937.969971, 1654.046143 939.830566, 1651.765625 941.895752, 1649.719849 942.850586, 1648.271362 943.974487, 1647.188110 945.487732, 1646.046753 947.758057, 1644.235229 951.335999, 1642.532593 948.805176, 1638.634033 950.768738, 1634.904907 953.293274, 1633.537964 951.381531, 1632.002441 949.291138, 1630.689575 946.181213, 1628.021118 947.916199, 1626.156494 948.100220, 1623.760010 948.084778, 1621.253784 947.540100, 1618.833496 949.441284, 1618.138062 951.734680, 1615.408936 953.449036, 1612.672119 954.749573, 1611.266357 956.428833, 1609.027832 957.632324, 1611.224121 958.922363, 1609.134155 959.565002, 1606.062134 960.184082, 1602.059082 960.493530, 1602.953857 962.794189, 1599.829590 962.958984, 1597.373901 963.634094, 1598.661865 965.204407, 1601.719238 965.686340, 1602.595825 967.679504, 1601.708374 969.662354, 1601.758911 971.518005, 1603.388916 973.087097, 1603.414185 975.507385, 1602.280273 978.163391, 1600.144897 980.819153, 1601.663452 982.399475, 1599.915771 984.589783, 1600.880127 987.112976, 1601.339600 988.174377, 1598.881958 988.933960, 1599.607910 992.755859, 1600.019287 996.201416, 1599.868896 1000.084412, 1597.432739 1003.430969, 1597.185669 1007.016235, 1596.404785 1009.945068, 1596.175415 1011.456299, 1593.869263 1011.874817, 1591.229004 1014.510986, 1588.536743 1016.368286, 1588.421753 1018.949463, 1585.733154 1020.568909, 1583.104492 1022.223022, 1580.347290 1024.000000, 1578.691650 1023.873535, 1578.292236 1022.566833, 1575.901489 1022.360718, 1573.533691 1022.132629, 1572.261963 1021.721619, 1571.209229 1021.374146, 1569.660889 1020.828308, 1568.551270 1019.784973, 1567.428955 1018.430298, 1566.411377 1016.901611, 1567.372192 1014.247131, 1566.437622 1011.665955, 1565.639160 1008.664917, 1562.659180 1008.100159, 1559.781006 1007.299561, 1557.146851 1006.450928, 1554.808105 1005.196533, 1555.010742 1002.418457, 1552.919434 1000.297485, 1552.637695 996.850159, 1552.657227 993.317932, 1552.230591 989.896484, 1549.039795 988.620422, 1546.415649 987.039185, 1544.129517 985.436890, 1542.228027 983.752319, 1540.708252 982.067139, 1540.181396 980.028625, 1541.498047 977.280884, 1540.035278 975.556763, 1537.564697 975.470825, 1535.256226 976.852905, 1535.384521 974.995911, 1533.146484 975.155518, 1532.171997 973.509094, 1531.232666 971.399109, 1531.029785 968.472107, 1527.849976 969.754517, 1525.796021 968.857483, 1523.589844 969.116394, 1523.818848 967.120972, 1521.476440 966.535889, 1520.743408 964.889282, 1517.772461 963.544861, 1513.982422 964.832642, 1510.540283 965.631958, 1507.149414 964.156738, 1504.952393 964.653137, 1503.934937 963.229492, 1500.055176 962.242676, 1495.887451 960.436218, 1491.948853 958.281372, 1487.509155 956.052734, 1484.288086 955.963135, 1479.014404 953.039551, 1475.316406 951.064026, 1472.354736 949.515198, 1468.550049 947.326782, 1464.461792 946.720276, 1459.625122 946.080505, 1456.877686 943.646729, 1452.163452 942.183655, 1447.031860 939.891541, 1443.503662 936.542786, 1439.924561 934.827332, 1437.288818 931.441650, 1433.007568 927.103638, 1428.906372 921.940063, 1425.604980 916.784485, 1423.277344 912.443848, 1421.234619 908.810669, 1419.416504 905.262024, 1416.983276 900.550049, 1414.329346 896.617004, 1413.094116 892.963379, 1410.157593 889.668701, 1407.537354 888.694092, 1404.580688 885.127747, 1401.249390 881.804443, 1398.819580 878.892944, 1396.313721 876.151794, 1393.992676 876.727539, 1392.573975 875.596802, 1391.623535 874.823547, 1391.308105 872.523071, 1389.445801 869.860840, 1387.957520 866.497070, 1384.842285 862.337524, 1382.244019 859.194397, 1379.464111 857.181274, 1376.741455 853.884827, 1371.497803 851.550720, 1366.586426 849.433105, 1361.396729 847.581665, 1357.804565 846.662598, 1354.880859 844.910278, 1351.699463 842.652039, 1347.943481 842.143005, 1346.679932 840.163879, 1340.916382 838.648254, 1337.828735 838.652954, 1333.314209 837.835754, 1327.547852 835.769409, 1324.809814 835.483704, 1321.047729 835.454529, 1317.289795 835.151917, 1313.582520 833.941406, 1309.850708 833.719910, 1306.709961 832.890320, 1303.692017 832.863220, 1299.755737 831.286255, 1298.656982 833.326416, 1296.236572 833.377197, 1291.899170 832.505493, 1289.132080 834.412720, 1286.862915 832.867432, 1283.682983 833.858215, 1280.047485 834.789368, 1276.902954 835.866272, 1274.074341 833.855103, 1270.989258 831.740723, 1269.665894 831.700439, 1268.225342 829.398499, 1266.531372 830.074036, 1266.562866 828.495178, 1264.148560 825.998962, 1261.411743 824.655884, 1261.336182 821.445435, 1259.145630 819.660645, 1259.750244 816.729736, 1261.026733 814.061340, 1260.725952 810.388367, 1258.003418 808.926025, 1257.821167 805.413330, 1255.773804 801.554199, 1255.010254 798.491150, 1253.360107 794.633423, 1249.805786 794.668762, 1246.627197 793.600342, 1242.244629 791.238708, 1241.588867 792.862061, 1240.066895 791.902893, 1238.371094 791.467712, 1237.919922 789.755371, 1232.693970 783.627441, 1227.696289 777.245483, 1222.186035 774.085144, 1221.566284 768.147705, 1219.430176 766.244690, 1220.342041 762.936279, 1218.177612 759.125854, 1217.645630 754.922424, 1218.983643 750.896729, 1221.485352 747.585083, 1223.880005 745.069824, 1225.408203 743.322144, 1226.158447 741.802368, 1223.570923 742.224426, 1224.183350 740.368896, 1221.396362 739.582642, 1222.957275 737.646545, 1219.917847 738.396606, 1219.392334 736.521240, 1216.706543 738.569885, 1214.604004 738.422302, 1213.093750 736.334595, 1213.629639 734.408447, 1214.269165 733.102173, 1213.697266 731.519775, 1213.266968 729.098572, 1212.525146 727.126709, 1212.631836 725.792053, 1213.077393 723.889282, 1212.830078 720.823730, 1212.178467 718.089233, 1210.993652 716.060181, 1210.984497 713.905823, 1210.623779 710.718384, 1210.170410 707.844727, 1211.609741 705.648132, 1213.210938 702.970459, 1215.424683 699.694214, 1215.088379 696.247681, 1215.619263 693.600220, 1214.711060 687.956665, 1214.573853 682.691650, 1213.237305 678.080811, 1212.501099 673.073364, 1211.740112 670.228943, 1211.260376 668.963867, 1212.511841 668.531982, 1212.308105 665.047424, 1212.181274 661.801697, 1214.394897 658.732056, 1214.533936 656.270752, 1215.780640 654.529663, 1215.650269 651.957031, 1217.730591 650.430420, 1218.854980 645.033936, 1221.863281 639.907837, 1223.812988 633.798279, 1225.124878 629.880249, 1225.754272 626.504089, 1226.672241 622.566284, 1227.480957 618.878357, 1228.493286 614.713013, 1228.276978 611.193604, 1228.699097 607.911072, 1229.236450 604.298645, 1230.911743 602.315125, 1232.053589 597.798462, 1233.904907 593.106384, 1236.641357 590.732544, 1236.842285 587.965637, 1239.227661 586.721802, 1241.039673 582.322876, 1244.012573 577.723755, 1247.840332 572.992126, 1248.363770 570.493530, 1248.627930 568.194824, 1249.640869 566.130371, 1251.397461 564.848267, 1253.162476 562.557495, 1252.914795 561.020813, 1254.485596 559.869202, 1256.863281 557.186646, 1259.969360 554.098816, 1263.700073 552.815552, 1267.057129 551.246704, 1269.651123 548.995178, 1271.477051 544.852295, 1273.274536 540.792969, 1275.130493 535.897400, 1278.028564 528.237671, 1280.685547 521.924561, 1283.004883 515.288086, 1283.555786 511.519775, 1284.877319 505.367310Z M1146.725830 544.643982 L1148.289429 541.414917, 1147.894165 537.335510, 1149.474976 532.627441, 1150.830811 531.161499, 1151.243042 528.324707, 1154.161377 526.785217, 1157.310181 524.979858, 1159.635864 520.860229, 1163.917114 519.426453, 1164.983765 515.775146, 1166.104248 511.840454, 1167.977905 510.782776, 1167.551147 508.043518, 1167.672852 502.930481, 1170.697998 503.083374, 1170.723022 500.671387, 1171.616577 497.382263, 1173.330322 495.569153, 1174.656128 492.731995, 1176.161255 489.697021, 1178.220337 487.011353, 1180.537720 485.020081, 1181.918335 483.533447, 1182.280151 482.415222, 1180.742798 482.344177, 1180.476562 479.793823, 1178.591431 478.317383, 1178.956543 475.540161, 1177.794800 473.039734, 1176.284668 470.547913, 1175.698364 467.783264, 1173.187134 466.752991, 1170.656006 466.039062, 1167.647217 466.603088, 1167.791382 461.226624, 1168.029175 456.272766, 1168.204468 451.338562, 1168.616333 446.769287, 1168.505859 442.847229, 1168.708374 439.577515, 1168.082764 436.851929, 1166.948364 433.636169, 1167.941406 432.560669, 1167.131592 431.041382, 1165.961304 428.406921, 1165.224609 422.813049, 1165.964966 420.580444, 1164.963013 417.545410, 1165.806030 413.427612, 1165.450073 409.139343, 1164.618774 404.741394, 1163.412964 400.633850, 1162.322266 396.264343, 1161.870117 392.944397, 1161.334595 390.452026, 1161.289673 389.176392, 1160.574829 386.740173, 1159.104614 382.460571, 1158.509277 378.626526, 1158.141846 375.201111, 1157.396851 372.273315, 1159.178467 369.995239, 1158.597778 367.147034, 1155.667847 366.527039, 1154.761475 363.690613, 1152.660767 361.953552, 1149.975098 359.510620, 1147.447388 358.069092, 1145.484863 355.637817, 1142.774414 353.551208, 1141.644653 349.587036, 1138.171875 346.013367, 1135.923096 341.860352, 1133.481079 338.515198, 1131.006348 335.563904, 1129.852661 330.932800, 1128.406860 326.407349, 1126.690918 323.743042, 1125.603271 318.785339, 1126.880981 314.584351, 1127.410767 311.809814, 1126.358765 309.817322, 1125.953003 304.655212, 1126.578003 301.793823, 1126.905640 299.235718, 1124.789673 296.240112, 1126.227417 294.251709, 1124.579712 291.687500, 1125.669189 289.091675, 1124.129639 287.390625, 1123.131714 283.869263, 1121.366699 280.217041, 1121.837036 277.990112, 1119.435059 276.759155, 1120.512329 274.924194, 1121.390259 273.067993, 1123.211792 271.621704, 1123.380737 270.356750, 1123.612183 268.959717, 1125.473511 267.778625, 1128.615723 266.339478, 1125.770630 265.057922, 1126.037720 262.306641, 1126.416626 260.208679, 1125.173340 259.065552, 1123.796143 257.218628, 1126.462769 256.207642, 1125.180298 254.177246, 1127.298096 253.252014, 1125.854980 251.696350, 1123.910400 248.262939, 1123.399414 245.012024, 1120.502808 243.436523, 1121.693604 239.947754, 1119.591431 237.391479, 1119.071899 235.355042, 1117.526733 236.300476, 1115.955566 234.979919, 1113.243652 234.866150, 1113.318359 232.593201, 1112.378052 232.743591, 1110.619507 233.701294, 1107.092407 234.303406, 1103.640381 235.322998, 1100.568237 235.698608, 1098.023560 235.890747, 1095.796997 234.995422, 1093.056763 237.173340, 1091.507324 234.421509, 1090.784546 231.137634, 1090.446533 228.661072, 1088.302856 228.186829, 1085.071411 229.934753, 1084.126099 227.326416, 1083.698486 224.455811, 1083.347656 221.112549, 1082.736694 217.781982, 1082.041992 214.707581, 1079.388672 213.784729, 1076.564453 212.793030, 1075.948975 209.279968, 1077.285034 207.187500, 1075.623169 206.129395, 1075.565552 203.049255, 1076.893921 201.421265, 1075.214478 199.984680, 1074.844727 196.664673, 1074.565430 193.756165, 1072.841309 191.818054, 1071.994751 188.928711, 1069.002441 187.518127, 1067.922241 184.905884, 1065.748657 183.250732, 1062.712158 182.692444, 1060.383301 179.726196, 1061.135254 177.498718, 1059.603149 175.202942, 1059.553955 172.766418, 1058.104004 170.100220, 1058.473022 167.235229, 1060.960693 165.858643, 1061.840576 162.946655, 1058.843384 162.073364, 1057.309937 160.697815, 1057.421997 158.506287, 1056.467041 156.266846, 1054.858521 155.544983, 1052.853394 154.678406, 1051.291626 157.924072, 1048.348145 159.998230, 1045.566895 162.244934, 1042.760376 161.238647, 1040.776001 162.698303, 1038.554199 163.523254, 1036.740845 164.330566, 1034.506836 164.801758, 1032.632935 166.028809, 1030.374634 165.823792, 1027.730469 165.912170, 1026.912476 164.011902, 1025.404541 165.450867, 1022.343262 165.832886, 1021.023987 162.885437, 1018.922852 161.124939, 1017.522644 160.657898, 1015.780396 159.956055, 1011.745056 159.664368, 1008.692688 157.192200, 1006.455750 154.875122, 1004.677612 152.941101, 1001.723999 151.728882, 999.979980 148.843445, 1000.472046 146.771484, 998.055298 145.168518, 999.038696 141.979553, 999.269409 139.262512, 997.277588 137.718933, 997.481934 135.059570, 995.787109 133.505493, 995.682922 131.207764, 996.731323 129.673340, 994.051514 129.768005, 994.412964 127.211670, 995.471741 125.408203, 992.606201 125.474548, 992.384155 121.763123, 991.461731 118.812500, 990.691589 116.991150, 989.450073 115.185974, 987.428223 113.958069, 986.320618 115.074402, 984.802185 115.809875, 981.690002 116.417725, 977.877319 117.521790, 974.510315 116.775208, 972.083862 118.819763, 969.653931 120.950989, 966.043518 120.129333, 962.353394 119.493835, 959.209656 121.628906, 957.307434 119.806824, 956.439209 121.495422, 954.095032 122.678711, 950.720825 123.863220, 946.700867 125.070251, 942.948486 126.225647, 940.822388 127.643250, 939.148865 128.083923, 937.147400 128.982056, 934.017822 130.747375, 931.228271 132.601013, 929.071533 133.773010, 927.949585 135.724976, 925.957031 137.956299, 922.732971 139.112061, 921.183899 140.574097, 919.393250 141.885925, 917.686890 144.405640, 916.176758 146.456421, 917.020996 149.213257, 914.772156 151.475586, 912.406982 154.063171, 910.074097 156.829651, 907.455811 159.542114, 904.699890 162.505798, 902.618042 163.871704, 901.585938 165.567566, 900.400085 167.827698, 898.020813 168.926697, 895.192017 169.966187, 892.111267 171.308777, 888.582886 172.494507, 886.143860 174.119629, 885.100830 176.510376, 883.894043 178.632324, 881.144714 179.891174, 878.965088 182.837402, 876.384399 185.804321, 874.727478 188.245605, 873.240723 190.508301, 870.826477 194.636108, 868.974487 199.460022, 867.213745 200.698303, 866.044312 201.076477, 867.000916 203.691772, 866.245972 209.679260, 865.684387 215.854919, 863.901978 220.774841, 860.877380 224.273376, 858.264709 227.833008, 855.416992 231.007507, 852.314758 233.243530, 847.808716 234.324646, 841.143188 235.291748, 835.517517 235.114136, 829.117004 235.931763, 827.480957 234.789246, 824.557617 235.195984, 821.753052 236.035522, 814.020996 236.111755, 804.389221 234.408936, 797.424927 232.355408, 791.231689 229.969849, 784.042603 228.278748, 776.879639 225.014282, 769.472595 221.648071, 765.054321 219.671570, 761.353333 218.390625, 757.261230 217.565857, 754.275330 217.708496, 747.148132 214.557495, 742.366638 212.114136, 735.534668 208.726196, 732.158081 206.019348, 725.586426 201.653198, 725.585693 199.706116, 723.123779 197.295532, 720.860046 193.944031, 719.184448 189.492737, 718.518372 186.337341, 716.174194 184.725769, 717.289124 180.912842, 717.414062 176.792603, 716.716309 173.340393, 715.605286 168.002380, 713.430786 161.960388, 710.416870 155.870239, 707.878479 151.282959, 706.558044 148.660950, 703.609680 144.955994, 701.842957 142.004456, 702.106445 139.931396, 698.572693 136.716187, 693.896912 137.124146, 691.331238 134.833008, 687.469116 134.005920, 684.505676 131.572266, 681.468994 130.137085, 678.083618 130.435608, 675.468201 128.085693, 673.351196 125.635681, 669.022522 122.871643, 664.088013 119.873596, 660.367737 116.447937, 657.415405 114.473572, 654.129456 112.233093, 650.688782 110.514526, 647.512817 108.349365, 645.027344 105.738892, 642.060791 104.198730, 639.121582 102.646973, 634.195496 99.865662, 631.456177 97.772827, 629.581909 96.534546, 625.548828 94.275330, 625.876831 91.502197, 623.340088 90.445190, 618.521545 89.164124, 617.201050 85.496765, 615.104675 84.401184, 614.048279 86.666260, 612.442078 84.542908, 609.909424 84.562988, 606.277039 82.625061, 603.597046 82.588196, 601.591309 83.591553, 599.178040 83.125610, 596.720276 80.807251, 593.008606 79.037231, 591.790466 77.085876, 589.249512 77.753906, 586.714539 73.977295, 584.953369 71.095093, 582.472778 69.618896, 579.854309 68.887573, 575.763306 67.779053, 572.471619 65.342590, 569.210815 63.870239, 565.859924 62.105774, 562.723328 60.468750, 560.136536 58.736816, 558.368713 57.814331, 557.389404 56.540344, 555.478271 56.081055, 553.486206 56.703369, 551.280273 55.763245, 549.578308 53.728699, 547.894592 52.335205, 545.207642 52.619934, 542.135315 53.158264, 540.561523 51.062927, 538.526245 48.293884, 536.559570 45.488586, 534.981018 43.105103, 531.503662 43.634766, 527.899475 44.489258, 525.970886 44.440918, 523.494934 45.789795, 519.894836 47.550964, 515.622620 47.065674, 511.630524 46.477051, 508.020020 45.991272, 505.850861 48.393372, 502.233490 49.767639, 498.482178 49.628601, 495.796417 49.632629, 493.232666 50.845947, 490.554535 51.982300, 488.851990 54.430603, 487.369751 53.524536, 485.620026 54.546448, 481.770050 55.787170, 479.916321 59.612061, 477.124695 59.982727, 475.151764 60.126282, 473.119873 61.586731, 471.698730 60.660583, 469.754761 61.377075, 466.728729 64.925537, 461.825470 64.969849, 459.300690 66.224304, 457.161621 67.289673, 455.116333 66.602051, 452.145691 67.402344, 448.955536 68.191711, 446.369812 69.811707, 444.788818 69.296997, 442.695587 70.124573, 439.193176 71.147400, 436.569275 71.241455, 433.071930 72.430054, 428.567017 73.321411, 425.925171 75.367981, 422.876923 77.686340, 418.208099 79.416199, 413.885559 80.784973, 409.582611 81.881653, 405.010620 82.686584, 400.891174 81.484558, 396.979370 81.971680, 394.542053 80.779602, 392.001190 81.805847, 390.613647 79.743408, 388.542267 79.875122, 385.264221 79.945068, 381.643921 78.393494, 379.859802 76.933838, 378.489380 77.739563, 376.046478 78.802490, 374.401337 79.672241, 372.938232 81.200439, 371.110443 82.210938, 372.416840 84.163940, 370.470520 85.162170, 368.710419 85.863464, 368.361877 88.139526, 364.632660 89.540894, 360.604065 91.509521, 356.580017 93.726624, 352.734680 95.997742, 349.959503 97.538513, 348.043976 97.169495, 348.491486 99.519531, 346.104675 99.616272, 344.086578 100.837341, 341.616089 101.008301, 341.233185 103.235046, 338.652954 103.194946, 338.052155 105.803223, 335.494110 108.545227, 333.461060 111.138245, 331.459259 113.942444, 330.115936 117.072632, 326.708221 118.774231, 323.335480 119.978516, 321.732300 122.511597, 319.462891 125.920715, 317.423401 129.119629, 313.092651 130.736694, 310.929901 134.323730, 307.006958 136.155396, 303.203430 138.055298, 299.474884 139.866394, 295.791107 141.459961, 291.839844 142.871033, 290.443695 145.545166, 287.384705 146.264648, 283.857452 147.656067, 280.794220 148.972473, 281.023926 151.023560, 278.093048 154.088989, 273.055054 155.062317, 270.619354 158.248779, 267.736145 160.686707, 265.774353 163.930054, 264.311310 167.714294, 263.766022 170.487854, 262.895599 175.677246, 262.000183 180.732910, 259.797302 186.595032, 257.423279 191.050476, 254.039566 195.493774, 250.610886 200.120483, 247.584549 204.490967, 244.531219 208.946411, 242.740570 212.805603, 240.347717 216.333069, 237.928848 220.113464, 237.043915 223.213074, 235.933304 226.904785, 234.196793 228.882202, 234.167053 231.351685, 232.117889 236.085144, 227.375504 242.575256, 224.751434 247.449280, 219.260284 254.271179, 215.451416 259.963867, 207.616989 266.846313, 199.501572 272.629578, 195.128372 274.643372, 191.857437 277.734009, 185.897812 278.462708, 184.124207 278.287415, 181.085571 280.371460, 176.086990 282.238953, 170.567413 282.468628, 167.094177 283.052002, 164.156342 282.935791, 161.007660 282.376953, 157.633408 282.656921, 153.244293 281.535583, 149.604950 279.708374, 146.182617 278.882690, 143.837646 278.668030, 141.783035 278.877563, 138.555725 277.807556, 134.523209 277.341003, 131.414841 278.181946, 129.213882 278.670166, 127.848175 280.045410, 126.143211 280.342163, 124.965981 281.761841, 122.948257 282.575562, 121.484177 283.258362, 119.932617 283.733459, 116.674370 283.874146, 113.853149 282.957336, 112.710594 285.249451, 110.260277 284.281921, 108.407753 283.149170, 106.236328 284.464294, 104.491348 283.601501, 101.783012 283.669739, 99.312744 280.944397, 97.077423 279.556702, 94.786057 278.299927, 92.691734 277.124390, 90.315605 278.316895, 87.407707 280.311157, 85.048309 277.484131, 81.766174 278.597351, 78.977310 278.662231, 78.595314 276.481873, 78.274300 275.397461, 77.035385 276.962097, 74.921005 274.574036, 73.184189 272.678345, 70.929512 272.810120, 68.145889 272.704590, 65.414169 272.804260, 63.982445 272.731506, 63.253834 272.801758, 61.771511 272.680908, 59.105911 272.797668, 57.429668 270.598145, 56.608028 268.887085, 54.830791 270.674255, 54.173542 268.203369, 53.779854 266.975342, 52.250061 269.008118, 49.195107 266.590454, 46.147717 264.345154, 43.199097 262.193359, 40.825890 259.653442, 39.183010 258.272400, 36.985580 256.802795, 34.218487 257.809509, 32.204697 256.114014, 30.184053 257.372070, 30.736586 260.899658, 30.861868 264.875977, 31.596628 268.677551, 32.574192 272.295593, 32.665813 275.561890, 32.297726 278.998047, 32.657448 282.420471, 33.858162 286.219360, 34.333992 290.017639, 35.445705 293.477661, 35.307625 297.276855, 36.510757 300.597473, 34.650471 302.545227, 35.722073 305.270325, 36.024948 307.944946, 37.400028 309.489380, 37.991669 311.824097, 37.577419 314.495667, 36.893761 316.881226, 36.357758 319.607361, 34.844997 321.280762, 35.451756 323.905823, 34.109428 325.868164, 33.523235 326.794678, 32.635876 328.605835, 32.042423 331.890625, 30.956812 334.356262, 31.618904 336.271606, 31.265230 338.974792, 31.148918 342.444214, 30.328184 345.973633, 26.232170 347.702515, 23.609306 350.914368, 22.184435 352.413391, 21.570925 353.399170, 20.200480 355.514709, 16.079369 358.695251, 13.295743 362.595093, 11.166348 366.295654, 9.044008 369.638000, 6.860690 372.604553, 4.936000 375.499268, 3.261370 378.444702, 0.000000 378.896179, 1.643889 381.354187, 3.174993 384.248108, 4.551687 387.145752, 6.167959 389.818054, 8.096177 392.415771, 9.827552 395.476074, 11.702653 398.647583, 13.652541 401.623352, 15.542055 404.177551, 16.944450 405.419800, 18.052237 406.228333, 18.513754 408.375977, 16.398872 408.751465, 16.818060 410.085571, 17.669233 411.765991, 18.994726 413.938843, 20.012505 416.887573, 20.022282 420.189331, 19.519440 422.294067, 19.220999 424.701355, 17.900446 427.470459, 15.425138 429.427856, 12.122041 431.213989, 10.226378 431.151733, 10.542356 432.716736, 9.860812 434.497009, 9.655603 437.252991, 9.744400 440.729675, 12.901553 444.412537, 14.456040 450.603638, 16.114544 455.708496, 16.628876 457.425964, 18.205940 457.298279, 20.863779 456.427368, 22.576105 454.533691, 23.080963 455.448425, 24.131096 454.597961, 26.858683 451.314941, 31.092577 447.660889, 34.883904 446.012146, 36.679482 447.039612, 39.247009 447.129700, 42.337845 447.911865, 45.371933 449.352356, 46.148422 452.389954, 48.291725 454.695862, 50.794849 457.158386, 51.025055 460.000183, 52.978672 462.184570, 53.292332 466.210083, 55.071983 470.023193, 53.724823 473.916626, 53.664852 477.755249, 54.658138 481.025146, 56.827549 487.289734, 57.025501 493.171875, 56.996674 496.029175, 59.342064 499.026794, 58.370850 500.348022, 60.413868 502.955750, 63.427292 506.801819, 65.543083 509.126831, 68.062431 512.083008, 71.908485 515.747559, 75.535522 518.966858, 78.098625 524.085205, 80.517990 529.200500, 83.109207 533.904175, 85.527267 538.940430, 84.158432 540.628662, 85.719269 542.237000, 88.355743 547.070923, 91.347595 552.121460, 93.803955 555.668579, 96.531342 558.525574, 97.495300 560.943359, 99.717827 562.648560, 100.127739 564.566162, 101.693916 566.822998, 105.728951 572.536011, 107.685692 578.448608, 109.036789 582.618164, 110.215225 588.350464, 111.597160 593.724854, 112.034592 599.873047, 112.504372 606.279053, 112.278404 609.774475, 112.473839 615.690857, 113.117989 620.931763, 112.372444 627.629028, 111.625687 633.318970, 109.989662 637.280762, 109.347725 642.889343, 107.956718 648.765015, 106.593735 654.153076, 104.903481 656.042175, 105.256546 659.360229, 102.846657 663.363464, 101.523079 665.000122, 101.971092 667.835083, 99.617233 672.072388, 98.517914 673.448608, 99.180710 675.652344, 97.740723 676.015747, 98.409470 677.363037, 100.102242 679.019226, 100.346252 684.100952, 100.122093 687.894592, 99.955383 691.919250, 100.337379 696.973022, 100.567284 702.045776, 99.177589 705.250122, 99.429260 709.781860, 98.537567 713.999756, 97.696472 719.190308, 98.042992 724.383240, 99.053719 728.770020, 98.295372 733.291016, 98.063957 736.749268, 99.366570 739.898438, 99.313049 743.132324, 100.768562 746.277161, 102.835167 750.017700, 102.647194 752.319092, 104.195930 754.995544, 106.216675 759.101074, 108.530113 762.939941, 108.462486 765.599609, 110.982544 767.307739, 111.060959 770.124756, 111.821724 773.116089, 109.704117 773.675354, 109.233734 775.983215, 110.278725 778.456116, 108.839539 781.184692, 107.392899 783.887390, 106.484276 785.986145, 104.820229 786.862061, 105.335976 789.072449, 107.311363 790.803589, 107.516365 793.716919, 106.568436 794.655884, 107.841919 795.864258, 107.941299 796.882935, 109.413040 796.712219, 112.735992 795.866150, 114.518967 797.232849, 115.740448 796.041504, 117.774292 797.333374, 120.255547 797.440186, 121.555336 800.891418, 123.340836 801.419800, 124.518875 804.825928, 126.257607 806.892090, 127.948761 812.431519, 131.046448 817.181396, 132.777115 820.729675, 135.780365 823.917480, 137.370529 827.430847, 138.946793 829.740295, 141.025085 831.380615, 140.744690 833.918091, 142.170166 836.528198, 143.731400 839.013550, 144.375656 841.064575, 146.806824 841.232727, 148.295181 842.641602, 149.463150 844.762024, 150.943344 846.505249, 152.683990 848.866333, 154.335953 851.647217, 155.892548 854.155090, 158.477417 854.726990, 159.426666 856.133972, 161.679123 855.153625, 165.107712 855.826477, 167.765747 855.374451, 168.619934 857.575745, 170.943359 857.689819, 174.762695 858.266541, 177.331345 858.530029, 180.027374 858.548889, 181.843613 860.553223, 183.840576 860.719360, 185.822113 862.132690, 188.146530 862.032227, 189.268738 863.740906, 191.860855 864.140442, 196.004944 864.660522, 200.460892 865.323486, 204.381226 865.830078, 208.775574 865.980713, 212.740356 866.052368, 216.306519 866.103943, 218.158234 867.250122, 219.622314 866.685120, 220.745728 867.887634, 222.093292 867.697327, 224.485443 868.473206, 228.407593 868.676941, 232.306671 870.364624, 237.240051 871.425964, 241.082474 870.951660, 246.644989 869.993652, 250.722656 869.927612, 252.846603 868.539429, 258.754730 866.364197, 264.939209 864.875610, 270.255188 862.721252, 276.775208 861.276855, 282.589111 859.763977, 287.896118 859.316589, 291.475586 860.554810, 294.735016 860.920349, 298.826721 861.352112, 301.277130 858.954163, 303.230438 855.460999, 306.930634 853.056580, 308.414490 850.977905, 308.959656 848.440308, 312.907898 844.401428, 315.198669 843.340698, 315.441864 843.965637, 316.509033 842.764587, 316.144684 840.895508, 320.292419 836.257690, 321.677856 837.511841, 323.850494 834.547241, 327.480469 830.392822, 332.266388 827.643860, 337.405792 824.757935, 342.726715 822.379211, 346.564606 820.734680, 348.742554 818.012817, 352.448639 815.467834, 357.689514 812.615051, 363.142365 809.951599, 366.826050 808.051636, 372.180634 805.784119, 377.820160 803.702820, 382.019531 801.066406, 387.387268 799.298706, 395.471527 796.844360, 403.758362 794.400635, 411.497192 792.244873, 418.104401 790.446594, 421.123260 790.133118, 424.002625 788.706604, 430.665375 786.838623, 436.639862 785.361511, 441.859894 783.981445, 448.778076 782.425232, 455.325165 781.102661, 460.789703 779.819336, 467.808594 778.740417, 473.918579 778.245239, 481.774078 777.317810, 488.101990 776.741333, 495.362213 776.007874, 500.107513 776.438110, 505.761719 775.884705, 510.915924 775.551086, 518.149353 774.906921, 524.027100 774.439636, 531.249084 774.378296, 539.059753 775.109436, 547.301697 775.667480, 557.382874 777.341309, 565.822144 779.285095, 573.069397 782.544373, 582.005005 788.906128, 586.720276 794.564697, 594.483459 803.331177, 600.732483 811.704102, 604.801453 820.282654, 608.880615 827.407715, 611.915833 834.776184, 615.171814 841.153931, 617.564697 848.546509, 620.271667 855.898682, 622.306396 863.490234, 623.770508 870.775208, 625.597595 877.007874, 627.615112 880.915039, 631.062195 885.293335, 633.637756 888.497925, 637.262390 890.884338, 639.156067 892.771851, 642.361816 893.975952, 644.748535 895.311890, 646.823975 896.989319, 648.585632 898.506042, 652.472839 898.187500, 650.468689 899.961304, 649.062561 901.817871, 647.612854 903.611145, 647.081055 905.617310, 650.187134 907.628235, 649.343567 909.072510, 648.369446 910.050171, 651.186462 911.015198, 648.447998 911.151001, 650.651733 912.966187, 653.944092 915.223511, 651.926208 916.589844, 650.764587 917.914612, 654.739807 920.398926, 652.891113 921.219116, 653.208435 922.980347, 653.830383 925.633484, 653.647705 927.487854, 654.882812 929.476318, 653.890259 930.862610, 656.180664 933.650513, 659.390686 936.282288, 658.064209 937.777649, 657.084595 939.799194, 655.848816 942.326904, 654.164368 945.194824, 651.932861 948.258606, 655.260437 948.271301, 658.494507 948.821106, 661.406982 949.539734, 664.011536 950.518311, 666.061157 948.957275, 669.072754 951.351562, 671.797913 952.186401, 673.625549 954.021118, 676.113831 954.550415, 679.072449 956.061157, 681.820129 956.801941, 684.414062 957.275391, 685.901794 959.657166, 687.282043 958.185852, 690.556274 959.568481, 693.072693 960.366821, 694.217834 958.277588, 695.710571 956.171570, 697.551636 958.787537, 699.436096 959.158325, 701.396240 958.280823, 704.318054 960.068909, 706.972717 962.972900, 708.200256 962.841980, 710.054321 962.286865, 712.122986 961.965454, 714.847534 964.140259, 717.286865 965.114990, 719.059265 965.927368, 718.905090 965.174316, 719.127075 963.843262, 721.579346 965.843628, 721.389282 963.991394, 723.440125 964.540466, 725.747314 966.799988, 725.281067 964.461487, 727.595764 964.939026, 730.046936 967.164612, 730.381836 964.444763, 732.813843 968.172607, 734.280701 967.149963, 735.398865 969.803345, 736.606445 969.899353, 739.147949 972.353333, 742.639404 973.185425, 747.387512 973.537781, 750.769409 975.230957, 753.575317 975.616211, 755.181030 974.440552, 757.606689 975.474365, 761.120239 975.585632, 765.077087 977.285767, 767.760925 978.121765, 769.851990 977.999817, 771.922668 978.453003, 774.068665 979.106873, 775.728088 977.622620, 781.311951 978.964233, 784.552917 980.214844, 788.015625 980.894836, 792.463806 979.999878, 799.164429 977.629883, 807.327332 974.881714, 816.022705 970.208618, 818.939758 970.105896, 824.380859 968.916748, 830.148010 969.385010, 836.778076 965.904419, 848.794556 961.194458, 850.702820 960.877808, 853.310547 959.512268, 858.941101 956.589172, 860.445190 956.349609, 863.198059 955.026489, 865.825378 953.329163, 873.631897 950.902466, 880.302490 951.699219, 886.647034 951.448242, 891.658203 951.495972, 895.731262 951.650452, 898.185730 950.835083, 901.321716 952.311768, 904.363464 952.564026, 907.907227 952.579285, 911.168274 951.930176, 914.046082 950.517822, 916.789978 949.342224, 919.335999 947.844666, 922.106873 946.624268, 924.865479 945.549438, 927.951904 943.561890, 930.727356 943.221802, 933.823303 941.266113, 934.783020 942.327087, 935.749634 941.428162, 937.879211 939.409058, 940.113525 938.895081, 941.347778 936.599915, 944.028137 936.000610, 947.246582 934.529053, 949.387329 934.857361, 950.401978 933.236389, 952.528076 931.822876, 954.888245 932.315491, 958.418274 930.630249, 962.096558 925.620605, 970.354248 920.948730, 974.268188 920.045776, 978.725464 915.650635, 981.635071 918.119263, 984.436218 922.052734, 981.582947 926.475525, 984.833130 926.230591, 989.348022 929.386292, 986.681152 931.109619, 987.488586 932.166626, 991.211548 932.707825, 994.702820 933.813477, 994.023499 931.037842, 995.535156 927.263550, 997.918457 928.708191, 997.846069 927.176697, 998.496887 926.595398, 999.417114 926.021667, 1000.471069 925.443481, 1002.014038 924.200684, 1004.965271 924.014954, 1006.950867 922.025696, 1011.419922 922.307434, 1014.836304 922.805420, 1018.050659 924.346741, 1019.101440 926.776123, 1022.273621 928.013306, 1025.326172 929.133057, 1028.678589 929.190796, 1031.208008 930.296448, 1032.896606 928.403137, 1036.131592 928.687866, 1038.507568 927.746094, 1040.397095 926.160400, 1044.177124 926.336609, 1047.348877 926.487549, 1049.876587 925.544250, 1052.948730 926.106506, 1056.001343 926.533875, 1057.427002 927.751160, 1059.171997 925.596558, 1062.496948 927.576233, 1062.946899 929.475952, 1064.926147 928.614685, 1067.758911 926.517151, 1070.542725 926.334839, 1072.239014 925.758240, 1074.175537 926.124329, 1076.580688 925.398071, 1079.233276 924.617004, 1081.344482 925.410889, 1083.661255 925.923950, 1087.127441 927.253418, 1089.110596 929.315552, 1091.330933 929.372070, 1095.789551 929.557617, 1100.763306 928.885376, 1105.969849 927.020142, 1111.068848 926.863281, 1113.860718 924.156494, 1115.730469 923.768433, 1116.706787 924.032166, 1116.691895 923.352539, 1116.886230 921.987732, 1118.025391 921.444641, 1118.085083 919.880554, 1118.623047 916.691772, 1120.458496 916.551025, 1120.353027 914.824585, 1121.417236 912.142212, 1122.495483 908.645203, 1123.016602 905.746582, 1124.388916 902.738220, 1127.030762 903.814758, 1128.140015 901.275940, 1130.385010 900.429138, 1131.411621 900.106934, 1130.268555 898.471802, 1133.464478 898.340820, 1135.254150 897.327881, 1137.869019 897.126953, 1141.917603 896.916504, 1146.117188 894.148193, 1151.189453 893.830750, 1155.545898 895.283691, 1158.923340 895.557251, 1161.531372 895.596985, 1162.279541 897.584900, 1162.245728 895.075073, 1162.465576 893.378113, 1162.765503 892.344482, 1161.015137 887.531006, 1165.159058 878.793823, 1167.167969 872.557861, 1168.345581 864.675049, 1165.512085 857.962769, 1168.675781 854.427795, 1168.139771 851.269531, 1168.937012 849.082520, 1170.029419 846.943481, 1172.102173 845.790771, 1173.930054 846.197021, 1175.212769 845.182739, 1177.456665 844.717407, 1179.984741 845.001831, 1182.691284 846.439148, 1184.759521 847.453979, 1185.663574 848.988525, 1186.542114 846.476318, 1189.690186 846.976196, 1190.571899 843.903992, 1188.759521 840.937683, 1185.972656 837.554504, 1186.601196 835.041748, 1187.046387 833.703613, 1184.118652 834.206116, 1183.524414 831.016724, 1185.198486 828.430969, 1183.159668 828.166870, 1181.726318 826.603333, 1181.571045 825.104126, 1183.239990 823.579590, 1183.583130 821.810669, 1183.318115 820.024170, 1184.770996 817.637146, 1183.037598 817.128967, 1186.042358 813.198242, 1188.221680 809.202148, 1190.847412 807.906006, 1192.593262 806.380005, 1191.948853 804.883728, 1194.245972 802.808716, 1195.368774 801.442322, 1194.801147 799.740479, 1196.108643 798.664185, 1197.120361 795.515320, 1199.190063 789.932251, 1201.259155 783.225281, 1203.419189 779.906799, 1204.121948 775.075073, 1205.847046 775.714111, 1205.764038 774.287964, 1206.390869 772.914429, 1205.476807 772.051270, 1206.330566 770.096680, 1206.945435 767.151733, 1208.350708 764.346802, 1208.475342 761.105164, 1210.170410 759.255920, 1208.255615 758.605225, 1205.717773 758.518250, 1205.437988 755.227173, 1203.340210 754.864380, 1202.067017 749.896790, 1200.349121 744.645630, 1201.033691 741.525146, 1201.648804 739.929443, 1202.336792 738.029419, 1201.827515 735.574951, 1201.763306 731.364990, 1203.577026 729.802368, 1204.432007 727.291199, 1206.488037 724.347107, 1208.300049 721.474976, 1207.131348 718.016602, 1206.685913 714.457397, 1206.170898 711.276611, 1205.291748 708.002686, 1204.391479 704.460876, 1204.307617 701.749084, 1203.414551 699.300293, 1201.631104 696.788574, 1201.126953 691.920044, 1201.558105 688.807983, 1201.213501 686.931213, 1200.643433 684.906250, 1199.415161 682.528076, 1198.781128 679.768188, 1196.621094 676.332520, 1194.954834 674.278442, 1192.497070 672.845093, 1189.194092 670.795837, 1184.959717 667.975830, 1180.551147 666.781860, 1177.572754 665.782532, 1175.920288 665.538208, 1175.304810 664.455505, 1174.093262 662.562378, 1174.691650 658.080383, 1173.592407 654.674194, 1173.559692 651.103882, 1172.080566 650.002563, 1170.780518 643.595337, 1169.346558 637.002075, 1166.486572 627.886230, 1161.173218 620.518677, 1157.471558 614.532959, 1152.705688 606.059204, 1148.101685 597.577881, 1144.885498 589.906982, 1143.168091 582.779663, 1142.241699 575.695129, 1142.598755 570.474487, 1142.684326 562.060669, 1144.364014 556.142578, 1145.558716 552.607178, 1146.383545 549.265259, 1146.725830 544.643982Z "/>
    </clipPath>
    <filter id="dropshadow">
      <feGaussianBlur in="SourceAlpha" stdDeviation="2"/>
      <feMerge>
        <feMergeNode/>
        <feMergeNode in="SourceGraphic"/>
      </feMerge>
    </filter>
  </defs>
  <g inkscape:label="rois" inkscape:groupmode="layer" id="rois" transform="translate(0,0)" style="display:inline;" class="display_layer">
    <g inkscape:label="shapes" inkscape:groupmode="layer" id="rois_shapes" transform="translate(0,0)" style="display:inline;" clip-path="url(#edgeclip)"/>
    <g inkscape:label="labels" inkscape:groupmode="layer" id="rois_labels" transform="translate(0,0)" style="display:inline;">
    </g>
  </g>
  <svg:g id="sulci" style="display:inline;" inkscape:label="sulci" inkscape:groupmode="layer" class="display_layer">
    <svg:g id="sulci_shapes" style="display:inline;" inkscape:label="shapes" inkscape:groupmode="layer" clip-path="url(#edgeclip)"/>
    <svg:g id="sulci_labels" style="display:inline;" inkscape:label="labels" inkscape:groupmode="layer"/>
  </svg:g>
  <svg:g id="cutouts" style="display:inline;" inkscape:label="cutouts" inkscape:groupmode="layer" class="display_layer">
    <svg:g id="cutouts_shapes" style="display:inline;" inkscape:label="shapes" inkscape:groupmode="layer" clip-path="url(#edgeclip)"/>
    <svg:g id="cutouts_labels" style="display:inline;" inkscape:label="labels" inkscape:groupmode="layer"/>
  </svg:g>
  <svg:g id="display" style="display:inline;" inkscape:label="display" inkscape:groupmode="layer" class="display_layer">
    <svg:g id="display_shapes" style="display:inline;" inkscape:label="shapes" inkscape:groupmode="layer" clip-path="url(#edgeclip)"/>
    <svg:g id="display_labels" style="display:inline;" inkscape:label="labels" inkscape:groupmode="layer"/>
  </svg:g>
</svg>
